<svg xmlns="http://www.w3.org/2000/svg" width="318" height="327.202" viewBox="0 0 318 327.202">
  <g id="logo" transform="translate(-126 -371.798)">
    <text id="FindU" transform="translate(126 650)" fill="#3a94d0" font-size="115" font-family="JosefinSans-SemiBold, Josefin Sans" font-weight="600"><tspan x="0" y="0">FindU</tspan></text>
    <text id="Find_Your_Point" data-name="Find Your Point" transform="translate(186 692)" fill="#3a94d0" font-size="28" font-family="JosefinSans-Light, Josefin Sans" font-weight="300"><tspan x="0" y="0">Find Your Point</tspan></text>
    <path id="제외_1" data-name="제외 1" d="M58.114,165h0v-2.863l-1.06-5.19-4.593-5.19-5.122-6.979-9.892-8.769L32.5,132.25V136.9l-3.18,9.842-5.829,6.8-6.712,5.011-7.949,4.3L0,165l2.826-5.011,6.006-13.243L10.6,136.008v-6.085l-3.179-6.8-3-10.559L0,90.732V69.078l1.06-11.99L4.416,45.1,8.832,36.15l9.715-14.316,5.829-4.3L32.5,11.1,44.16,5.548l13.955-3.4L68.183,0H80.9L92.382.895l12.365,4.653,9.715,9.306,6.182,1.432,8.3,1.253,9.892,3.4,10.245,5.548,9.362,8.769,4.063,6.622v.007c.094.49,2.3,12.018,2.472,13.057C165.155,56,164.108,65.4,164.1,65.5l-1.59,7.337-1.236,5.011-3.533-2.505-6.182-3.579L145.9,68.183l-7.065-1.789H129.83l-6.183,1.789-3,2.148-1.236,2.505v8.948l2.826,7.159,5.652,7.874,7.949,6.8,12.365,8.948,6.183,8.232L156.5,131v9.664l-2.12,9.485-2.12,6.8-3.179,5.19-.883-5.19-4.239-5.19-8.125-6.979-6.889-5.369-8.3-5.727-9.362-5.548-6.536-1.611-1.06,3.4,4.239,2.326,3.356,6.264,1.59,5.011V148l-3.18,6.621-4.946,6.264-6,4.115,1.765-4.115-1.767-4.653-3.533-6.8-7.419-6.8-5.829-4.116-7.419-6.264,2.649,6.264v5.011l-1.766,5.906-5.476,6.8-5.476,4.653L58.114,165ZM109.693,31.139c-5.657,13.126-8.237,19.629-9.406,22.773-1.266,3.406-1.193,3.711-1.192,3.713l7.772,3.221,7.772-5.548,8.126-3.758,7.065-1.074h7.949l5.829,1.074h4.769l-1.06-6.085-6.889-5.369-7.242-4.116-8.3-2.684ZM74.131,32.6a8.273,8.273,0,0,0-3.278.671A8.387,8.387,0,0,0,68.177,35.1a8.6,8.6,0,0,0,0,12.065,8.387,8.387,0,0,0,2.677,1.828,8.347,8.347,0,0,0,6.556,0,8.387,8.387,0,0,0,2.677-1.828,8.6,8.6,0,0,0,0-12.065,8.388,8.388,0,0,0-2.677-1.828A8.271,8.271,0,0,0,74.131,32.6Z" transform="translate(195.226 371.798)" fill="#3d98c0"/>
  </g>
</svg>
